<svg xmlns="http://www.w3.org/2000/svg" role="img" height="16" width="16" viewBox="0 0 16 16" fill="currentColor"><path d="M2.464 4.5h1.473a.75.75 0 110 1.5H0V2.063a.75.75 0 011.5 0v1.27a8.25 8.25 0 1110.539 12.554.75.75 0 01-.828-1.25A6.75 6.75 0 102.464 4.5z"></path><path d="M.303 8.407c.79 0 1.214-.52 1.214-.907h1.5v8h-1.5V9.907H0v-1.5h.303zm4.832-.911h4.05v1.5H6.33l-.245 1.067c.256-.071.525-.11.804-.11 1.621 0 2.954 1.3 2.954 2.924C9.843 14.5 8.51 15.8 6.89 15.8a2.945 2.945 0 01-2.93-2.54l1.487-.197c.092.69.696 1.237 1.443 1.237.813 0 1.454-.647 1.454-1.423s-.64-1.423-1.454-1.423c-.49 0-.92.235-1.183.594l-.01.014-.206.254-1.314-.639.96-4.181z"></path></svg>